<svg width="50" height="49" fill="none" xmlns="http://www.w3.org/2000/svg"><rect x="1.262" y=".738" width="47.239" height="47.239" rx="23.619" fill="#fff"/><g clip-path="url(#clip0)"><path d="M34.13 14.526H16.18a.78.78 0 00-.78.78v17.95c0 .43.348.78.78.78h17.95a.78.78 0 00.78-.78v-17.95a.78.78 0 00-.78-.78zM21.186 31.15h-2.895v-9.31h2.895v9.31zM19.74 20.566a1.678 1.678 0 110-3.356 1.678 1.678 0 010 3.356zm12.284 10.585h-2.893v-4.53c0-1.08-.02-2.467-1.504-2.467-1.505 0-1.737 1.175-1.737 2.39v4.607H23V21.84h2.776v1.273h.039c.385-.732 1.329-1.505 2.738-1.505 2.932 0 3.47 1.929 3.47 4.436v5.107z" fill="#2091F9"/></g><rect x="1.262" y=".738" width="47.239" height="47.239" rx="23.619" stroke="url(#paint0_linear)" stroke-width="1.476"/><defs><linearGradient id="paint0_linear" x1="1.37" y1="48.715" x2="35.977" y2="7.427" gradientUnits="userSpaceOnUse"><stop stop-color="#00F3B9"/><stop offset="1" stop-color="#2187FF"/></linearGradient><clipPath id="clip0"><path fill="#fff" transform="translate(14.904 14.438)" d="M0 0h20.093v20.093H0z"/></clipPath></defs></svg>