<svg width="50" height="49" fill="none" xmlns="http://www.w3.org/2000/svg"><rect x="1.5" y=".738" width="47.239" height="47.239" rx="23.619" fill="url(#paint0_linear)"/><g clip-path="url(#clip0)"><path d="M34.158 13.726H15.606a.806.806 0 00-.806.807v18.552c0 .446.36.807.806.807h18.552c.447 0 .807-.36.807-.807V14.533a.806.806 0 00-.807-.807zm-2.329 5.886h-1.61c-1.263 0-1.508.6-1.508 1.482v1.944h3.015l-.393 3.042H28.71v7.812h-3.143v-7.81H22.94v-3.044h2.63v-2.244c0-2.604 1.59-4.023 3.914-4.023 1.114 0 2.07.084 2.349.121v2.72h-.003z" fill="#fff"/></g><rect x="1.5" y=".738" width="47.239" height="47.239" rx="23.619" stroke="url(#paint1_linear)" stroke-width="1.476"/><defs><linearGradient id="paint0_linear" x1="1.608" y1="48.715" x2="36.215" y2="7.427" gradientUnits="userSpaceOnUse"><stop stop-color="#00F3B9"/><stop offset="1" stop-color="#2187FF"/></linearGradient><linearGradient id="paint1_linear" x1="1.608" y1="48.715" x2="36.215" y2="7.427" gradientUnits="userSpaceOnUse"><stop stop-color="#00F3B9"/><stop offset="1" stop-color="#2187FF"/></linearGradient><clipPath id="clip0"><path fill="#fff" transform="translate(14.77 13.636)" d="M0 0h20.221v20.767H0z"/></clipPath></defs></svg>