<svg width="49" height="49" fill="none" xmlns="http://www.w3.org/2000/svg"><rect x=".738" y=".738" width="47.239" height="47.239" rx="23.619" fill="#fff"/><g clip-path="url(#clip0)"><path d="M34.389 17.96a8.105 8.105 0 01-2.329.626 4.033 4.033 0 001.779-2.23 7.984 7.984 0 01-2.566.977 4.034 4.034 0 00-2.955-1.278 4.043 4.043 0 00-4.044 4.046c0 .313.038.626.1.927a11.492 11.492 0 01-8.338-4.233 4.014 4.014 0 00-.55 2.042c0 1.404.714 2.642 1.802 3.37a4.08 4.08 0 01-1.828-.515v.05a4.045 4.045 0 003.241 3.97c-.347.09-.705.137-1.064.137-.264 0-.512-.026-.764-.061a4.051 4.051 0 003.78 2.805 8.105 8.105 0 01-5.02 1.73c-.34 0-.652-.013-.977-.05a11.451 11.451 0 006.21 1.813c7.438 0 11.507-6.16 11.507-11.508 0-.176 0-.351-.012-.527a8.71 8.71 0 002.028-2.091z" fill="#2091F9"/></g><rect x=".738" y=".738" width="47.239" height="47.239" rx="23.619" stroke="url(#paint0_linear)" stroke-width="1.476"/><defs><linearGradient id="paint0_linear" x1=".846" y1="48.715" x2="35.453" y2="7.427" gradientUnits="userSpaceOnUse"><stop stop-color="#00F3B9"/><stop offset="1" stop-color="#2187FF"/></linearGradient><clipPath id="clip0"><path fill="#fff" transform="translate(14.438 16.042)" d="M0 0h20.052v16.453H0z"/></clipPath></defs></svg>